<svg width="129" height="46" viewBox="0 0 129 46" fill="none" xmlns="http://www.w3.org/2000/svg">
<path d="M0 0H14.2128V13.9933H0V0Z" fill="#EA002D"/>
<path d="M22.9967 14C26.9233 14 30.1065 10.866 30.1065 6.99997C30.1065 3.134 26.9233 0 22.9967 0C19.0701 0 15.8869 3.134 15.8869 6.99997C15.8869 10.866 19.0701 14 22.9967 14Z" fill="#EA002D"/>
<path d="M38.8903 14C42.8169 14 46 10.866 46 6.99997C46 3.134 42.8169 0 38.8903 0C34.9636 0 31.7804 3.134 31.7804 6.99997C31.7804 10.866 34.9636 14 38.8903 14Z" fill="#EA002D"/>
<path d="M0.0391384 36.3046C2.58748 36.1161 4.54005 35.8289 5.89684 35.4431C5.95773 35.0488 5.98817 34.603 5.98817 34.1058C5.98817 33.6001 5.97512 33.1329 5.94903 32.7043L1.31766 31.0455C1.00455 30.9341 0.769721 30.7326 0.613168 30.4411C0.456614 30.1411 0.339199 29.7511 0.260922 29.271C0.0869741 28.2166 0 27.4108 0 26.8536C0 25.9707 0.0217435 25.332 0.0652306 24.9377C0.13481 24.2348 0.591424 23.759 1.43507 23.5104C3.40939 22.8075 5.73159 22.2288 8.4017 21.7745L9.19751 24.8734L7.52761 25.1048C5.8751 25.3449 4.50091 25.602 3.40504 25.8764C3.37025 26.0992 3.35285 26.3907 3.35285 26.7507C3.35285 27.488 3.37025 28.0666 3.40504 28.4866L8.21905 30.5697C8.7496 30.7926 9.10619 31.1827 9.28884 31.7399C9.34102 31.9027 9.36711 32.0185 9.36711 32.087C9.36711 32.1556 9.35841 32.3056 9.34102 32.5371C9.33232 32.76 9.31493 33.06 9.28884 33.4372C9.21926 34.4487 9.13228 35.3188 9.02791 36.0475C8.92354 36.7676 8.66697 37.2605 8.25819 37.5262C7.85811 37.7834 7.36671 38.0148 6.78398 38.2206C6.20995 38.4177 5.58809 38.5978 4.91839 38.7606C3.83121 39.0092 2.39179 39.2621 0.600121 39.5193L0.0391384 36.3046Z" fill="#181818"/>
<path d="M15.3422 45.4728L12.5895 45.6528L12.4851 30.9041L15.5249 30.3254L15.6553 36.6518L18.0297 36.2018C18.5168 34.2387 18.7603 32.5714 18.7603 31.1998C18.7603 30.4111 18.7168 29.7768 18.6299 29.2967C18.1863 29.0567 16.4077 28.9367 13.294 28.9367H12.5112C12.259 28.9367 12.0198 28.9453 11.7937 28.9624L12.3677 25.9792C12.9331 25.9364 13.4505 25.9149 13.9202 25.9149C14.3986 25.9149 14.9465 25.9321 15.564 25.9664C16.1902 26.0007 16.8164 26.0478 17.4427 26.1078C19.8344 26.3564 21.1912 26.6993 21.513 27.1365C21.8349 27.5823 21.9958 28.5467 21.9958 30.0297C21.9958 32.61 21.5696 35.1945 20.7172 37.7834C20.6477 37.9977 20.565 38.1863 20.4694 38.3492C20.3824 38.5035 20.2389 38.5935 20.0388 38.6192L15.5771 39.1978L15.3422 45.4728Z" fill="#181818"/>
<path d="M24.7485 30.3769C24.7485 29.2282 24.8702 28.5638 25.1138 28.3838C25.3573 28.2038 25.6313 28.0237 25.9357 27.8437C26.2401 27.6551 26.5749 27.4708 26.9402 27.2908C27.3055 27.1108 27.6839 26.9393 28.0752 26.7765C28.4753 26.6136 28.8667 26.4679 29.2494 26.3393C30.0669 26.065 30.6758 25.9278 31.0759 25.9278C31.4846 25.9278 31.8151 25.9492 32.0674 25.9921C32.3196 26.0264 32.5501 26.0864 32.7588 26.1721C33.2372 26.3693 33.5068 26.6564 33.5677 27.0336C33.8547 28.8253 33.9982 30.9598 33.9982 33.4372V34.1958L27.7491 34.273V35.9446C28.4275 36.1075 29.2363 36.2575 30.1757 36.3947L32.4196 36.7547C32.9936 36.8404 33.5807 36.939 34.1808 37.0504L33.4111 39.8665C31.0193 39.4979 28.4797 38.9021 25.7922 38.0791C25.1747 37.882 24.8572 37.5262 24.8398 37.0119L24.7485 30.3769ZM31.0628 31.4313C31.0628 30.6255 30.9802 29.7768 30.8149 28.8853C30.467 28.8853 30.1887 28.9024 29.98 28.9367C29.7712 28.971 29.5625 29.0181 29.3538 29.0781C29.145 29.1381 28.9319 29.2067 28.7145 29.2839C28.2014 29.4639 27.8622 29.6182 27.6969 29.7468V32.0613L31.0628 31.7013V31.4313Z" fill="#181818"/>
<path d="M37.1162 30.3769C37.1162 29.2282 37.238 28.5638 37.4815 28.3838C37.725 28.2038 37.999 28.0237 38.3034 27.8437C38.6078 27.6551 38.9427 27.4708 39.3079 27.2908C39.6732 27.1108 40.0516 26.9393 40.443 26.7765C40.843 26.6136 41.2344 26.4679 41.6171 26.3393C42.4347 26.065 43.0435 25.9278 43.4436 25.9278C43.8523 25.9278 44.1828 25.9492 44.4351 25.9921C44.6873 26.0264 44.9178 26.0864 45.1265 26.1721C45.6049 26.3693 45.8745 26.6564 45.9354 27.0336C46.2224 28.8253 46.3659 30.9598 46.3659 33.4372V34.1958L40.1168 34.273V35.9446C40.7952 36.1075 41.6041 36.2575 42.5434 36.3947L44.7873 36.7547C45.3613 36.8404 45.9484 36.939 46.5485 37.0504L45.7788 39.8665C43.387 39.4979 40.8474 38.9021 38.1599 38.0791C37.5424 37.882 37.2249 37.5262 37.2075 37.0119L37.1162 30.3769ZM43.4305 31.4313C43.4305 30.6255 43.3479 29.7768 43.1826 28.8853C42.8348 28.8853 42.5564 28.9024 42.3477 28.9367C42.139 28.971 41.9302 29.0181 41.7215 29.0781C41.5127 29.1381 41.2997 29.2067 41.0822 29.2839C40.5691 29.4639 40.2299 29.6182 40.0646 29.7468V32.0613L43.4305 31.7013V31.4313Z" fill="#181818"/>
<path d="M50.4885 38.3106C50.0623 38.2249 49.8014 37.852 49.7057 37.1919C49.5492 36.0775 49.4709 34.8945 49.4709 33.6429C49.4709 31.5427 49.6492 29.5711 50.0058 27.728C50.0927 27.2822 50.3102 26.9993 50.6581 26.8793L51.9627 26.5707C53.363 26.2364 54.7154 25.9878 56.02 25.8249V20.5529L59.0467 20L59.125 25.9278L58.851 34.9674L56.0983 35.2245L55.9939 28.6152C54.9415 28.6924 53.9544 28.9024 53.0325 29.2453C52.7802 30.7798 52.6541 32.0485 52.6541 33.0514C52.6541 34.483 52.6889 35.4474 52.7585 35.9446C53.8457 36.2275 55.1416 36.4675 56.6462 36.6647C58.1596 36.8619 59.1989 37.0076 59.7643 37.1019L58.9554 39.8665C55.5808 39.3436 53.4978 39.0007 52.7063 38.8378C51.9235 38.6749 51.1843 38.4992 50.4885 38.3106Z" fill="#181818"/>
<path d="M62.5039 26.3264L65.5959 25.6963L65.8438 36.0732C66.209 36.1932 66.4917 36.2532 66.6917 36.2532C66.9005 36.2532 67.0744 36.2532 67.2136 36.2532C67.3615 36.2446 67.5311 36.2232 67.7224 36.1889C68.2008 36.0946 68.7052 35.9146 69.2357 35.6489L69.3401 26.455L72.3016 26.095L72.4581 40.5608C72.4581 40.998 72.1755 41.4138 71.6101 41.8081C70.1664 42.7939 69.1053 43.4969 68.4269 43.9169L66.5482 45.0613C65.9568 45.3956 65.3784 45.7085 64.8131 46L63.2215 43.184C66.3526 41.7438 68.4921 40.6808 69.6402 39.9951L69.4445 36.8319L67.5006 38.9407H64.1608C63.8999 38.9149 63.6346 38.7906 63.365 38.5678C62.9475 38.2334 62.7388 37.8734 62.7388 37.4876L62.5039 26.3264Z" fill="#181818"/>
<path d="M82.2558 26.9565L85.426 26.4293V29.0138L85.3477 32.1256L89.0919 31.2255C89.6225 29.5711 89.8877 28.0709 89.8877 26.725C89.8877 26.4421 89.8704 26.1764 89.8356 25.9278C88.3657 25.4735 85.4651 25.1606 81.1338 24.9891L81.6296 21.9545C85.3433 22.1002 88.5614 22.4517 91.2837 23.0089C91.5185 23.0603 91.8925 23.3989 92.4056 24.0247C92.9101 24.6419 93.171 25.0748 93.1884 25.3234C93.2145 25.572 93.2276 25.8164 93.2276 26.0564V26.7765C93.2276 27.8909 92.9405 29.331 92.3665 31.0969C92.0534 32.057 91.7446 32.6743 91.4402 32.9486C91.3011 33.0772 91.175 33.1714 91.0619 33.2315L89.7834 33.6429C91.0532 35.0059 92.2273 36.5018 93.3058 38.1306L90.5922 39.9436L87.3307 34.2859L85.426 34.3887L85.3216 38.9407L82.4906 39.1721L82.2558 26.9565Z" fill="#181818"/>
<path d="M95.9542 30.3769C95.9542 29.2282 96.076 28.5638 96.3195 28.3838C96.563 28.2038 96.837 28.0237 97.1414 27.8437C97.4458 27.6551 97.7806 27.4708 98.1459 27.2908C98.5112 27.1108 98.8896 26.9393 99.281 26.7765C99.681 26.6136 100.072 26.4679 100.455 26.3393C101.273 26.065 101.881 25.9278 102.282 25.9278C102.69 25.9278 103.021 25.9492 103.273 25.9921C103.525 26.0264 103.756 26.0864 103.965 26.1721C104.443 26.3693 104.712 26.6564 104.773 27.0336C105.06 28.8253 105.204 30.9598 105.204 33.4372V34.1958L98.9548 34.273V35.9446C99.6332 36.1075 100.442 36.2575 101.381 36.3947L103.625 36.7547C104.199 36.8404 104.786 36.939 105.387 37.0504L104.617 39.8665C102.225 39.4979 99.6854 38.9021 96.9979 38.0791C96.3804 37.882 96.0629 37.5262 96.0455 37.0119L95.9542 30.3769ZM102.269 31.4313C102.269 30.6255 102.186 29.7768 102.021 28.8853C101.673 28.8853 101.394 28.9024 101.186 28.9367C100.977 28.971 100.768 29.0181 100.559 29.0781C100.351 29.1381 100.138 29.2067 99.9202 29.2839C99.4071 29.4639 99.0679 29.6182 98.9026 29.7468V32.0613L102.269 31.7013V31.4313Z" fill="#181818"/>
<path d="M108.57 26.6479L111.349 26.3007L111.805 28.2552L114.101 26.3007H117.311C117.476 26.3007 117.706 26.425 118.002 26.6736C118.498 27.0765 118.746 27.4365 118.746 27.7537L118.289 38.9664L115.38 39.1978L115.328 29.271C115.223 29.2367 115.08 29.2196 114.897 29.2196C114.715 29.2196 114.545 29.2282 114.388 29.2453C114.24 29.2624 114.08 29.2882 113.906 29.3225C113.497 29.391 113.162 29.4725 112.901 29.5668L111.936 29.9139L111.583 38.8378L108.805 39.0435L108.57 26.6479Z" fill="#181818"/>
<path d="M122.19 23.2404L125.373 22.636V26.6736L128.648 26.0692L128.896 28.9881L125.425 29.2453L125.177 36.2018C125.821 36.3989 126.378 36.5532 126.847 36.6647C128.022 36.939 128.739 37.1105 129 37.179L128.309 39.8665C126.378 39.4464 124.686 38.9621 123.234 38.4135C122.642 38.1991 122.346 37.8134 122.346 37.2562L122.19 23.2404Z" fill="#181818"/>
</svg>
