<svg width="36" height="36" viewBox="0 0 36 36" fill="none" xmlns="http://www.w3.org/2000/svg">
<path d="M28.5345 25.4655C27.832 24.7926 27.1482 24.1003 26.484 23.3895C25.926 22.8225 25.59 22.41 25.59 22.41L21.39 20.4045C23.0715 18.4975 23.9995 16.0425 24 13.5C24 7.7115 19.29 3 13.5 3C7.71 3 3 7.7115 3 13.5C3 19.2885 7.71 24 13.5 24C16.1445 24 18.555 23.01 20.4045 21.3915L22.41 25.5915C22.41 25.5915 22.8225 25.9275 23.3895 26.4855C23.97 27.03 24.7335 27.7665 25.4655 28.536L27.5025 30.624L28.4085 31.593L31.59 28.4115L30.621 27.5055C30.0525 26.9475 29.2935 26.2065 28.5345 25.4655ZM13.5 21C9.3645 21 6 17.6355 6 13.5C6 9.3645 9.3645 6 13.5 6C17.6355 6 21 9.3645 21 13.5C21 17.6355 17.6355 21 13.5 21Z" fill="#FDFDFD"/>
</svg>
